<svg width="246" height="249" viewBox="0 0 246 249" fill="none" xmlns="http://www.w3.org/2000/svg">
<path d="M188.689 149.557C188.113 149.126 187.414 148.894 186.695 148.894C185.976 148.894 185.277 149.126 184.701 149.557L180.319 153.939L172.782 146.489C180.798 135.787 186.119 123.311 188.295 110.117H203.369C204.058 110.077 204.708 109.788 205.199 109.304C205.691 108.821 205.991 108.175 206.042 107.488V63.666C205.991 62.9785 205.691 62.3331 205.199 61.8495C204.708 61.366 204.058 61.0772 203.369 61.0367H181.458C174.488 46.1067 163.404 33.4751 149.505 24.6252C135.607 15.7752 119.472 11.0742 102.995 11.0742C86.5185 11.0742 70.3837 15.7752 56.4854 24.6252C42.5871 33.4751 31.5022 46.1067 24.5323 61.0367H3.67307C2.98473 61.0772 2.3345 61.366 1.84292 61.8495C1.35134 62.3331 1.05185 62.9785 1 63.666V107.488C1.05185 108.175 1.35134 108.821 1.84292 109.304C2.3345 109.788 2.98473 110.077 3.67307 110.117H18.222C21.7321 130.098 32.2048 148.19 47.7828 161.185C63.3609 174.18 83.0377 181.238 103.324 181.109C121.512 181.1 139.247 175.434 154.07 164.894L161.607 172.344L157.225 176.726C156.798 177.295 156.568 177.987 156.568 178.698C156.568 179.41 156.798 180.101 157.225 180.67L203.325 226.245C205.235 228.19 207.512 229.735 210.025 230.79C212.538 231.845 215.236 232.388 217.962 232.388C220.687 232.388 223.385 231.845 225.899 230.79C228.412 229.735 230.689 228.19 232.598 226.245L234.351 224.492C238.183 220.655 240.336 215.454 240.336 210.031C240.336 204.608 238.183 199.407 234.351 195.57L188.689 149.557ZM103.587 16.3384C118.63 16.2582 133.392 20.4059 146.192 28.3089C158.992 36.2118 169.313 47.5521 175.981 61.0367H144.955C139.829 55.0569 133.47 50.2568 126.314 46.9658C119.158 43.6748 111.375 41.971 103.499 41.971C95.6231 41.971 87.8401 43.6748 80.6845 46.9658C73.5288 50.2568 67.1698 55.0569 62.0438 61.0367H31.0179C37.8154 47.6185 48.1914 36.3417 60.9986 28.4532C73.8058 20.5647 88.5452 16.3718 103.587 16.3384ZM137.724 61.0367H69.8879C79.0614 52.3836 91.1953 47.5639 103.806 47.5639C116.417 47.5639 128.551 52.3836 137.724 61.0367ZM7.39795 66.7335H201.573V105.297H7.39795V66.7335ZM150.564 110.555C147.463 120.592 141.229 129.372 132.775 135.608C124.321 141.845 114.092 145.209 103.587 145.209C93.0818 145.209 82.8529 141.845 74.399 135.608C65.9452 129.372 59.7109 120.592 56.6099 110.555H150.564ZM156.787 159.636C156.289 159.251 155.696 159.007 155.072 158.93C154.447 158.853 153.814 158.945 153.237 159.198C137.689 171.113 118.36 177.009 98.8085 175.801C79.2573 174.593 60.8008 166.362 46.8376 152.624C35.1791 141.308 27.4278 126.573 24.7076 110.555H51.2636C54.3654 121.631 60.8829 131.446 69.8879 138.601C76.9822 144.272 85.3695 148.099 94.302 149.741C103.234 151.383 112.434 150.789 121.082 148.012C129.729 145.235 137.554 140.362 143.861 133.826C150.167 127.291 154.758 119.296 157.225 110.555H183.825C181.635 123.212 176.3 135.116 168.312 145.175C168.085 145.423 167.915 145.717 167.814 146.037C167.712 146.357 167.681 146.695 167.722 147.029C167.764 147.362 167.878 147.682 168.055 147.967C168.232 148.252 168.47 148.496 168.75 148.68L177.514 157.445L165.507 168.4L156.787 159.636ZM231.284 220.548L229.487 222.301C226.526 225.099 222.606 226.658 218.532 226.658C214.457 226.658 210.538 225.099 207.576 222.301L163.272 178.479L186.761 155.254L231.108 199.076C233.892 201.946 235.462 205.779 235.495 209.777C235.528 213.775 234.02 217.632 231.284 220.548Z" fill="white" stroke="white" stroke-width="2"/>
<path d="M158.101 88.6438C158.879 88.6524 159.637 88.8911 160.28 89.3297C160.923 89.7683 161.422 90.3873 161.713 91.1086C162.005 91.83 162.077 92.6216 161.92 93.3837C161.763 94.1459 161.384 94.8445 160.831 95.3917C160.277 95.9389 159.575 96.3103 158.811 96.4589C158.047 96.6076 157.256 96.5269 156.538 96.2272C155.82 95.9274 155.207 95.4219 154.775 94.7743C154.344 94.1267 154.113 93.3659 154.113 92.5877C154.113 92.0661 154.217 91.5496 154.418 91.0683C154.619 90.5869 154.913 90.1502 155.284 89.7833C155.655 89.4165 156.095 89.1269 156.578 88.9313C157.062 88.7357 157.579 88.638 158.101 88.6438Z" fill="white" stroke="white" stroke-width="2"/>
<path d="M57.0492 85.5762L62.8336 95.2169C63.0389 95.6194 63.3533 95.956 63.7407 96.1885C64.1281 96.4209 64.573 96.5399 65.0247 96.5316C65.5896 96.5184 66.1394 96.347 66.6119 96.0372C67.0843 95.7274 67.4605 95.2914 67.6978 94.7787L73.4386 81.194C73.7 80.5514 73.7099 79.8337 73.4663 79.1841C73.2227 78.5345 72.7434 78.0004 72.1239 77.6882C71.4749 77.4244 70.7508 77.4132 70.0939 77.6565C69.437 77.8998 68.8949 78.3801 68.5743 79.0029L65.0247 87.7673C63.0876 84.8007 61.3174 81.7284 59.7223 78.5647C58.3638 76.8118 56.1727 76.8118 55.3401 78.5647C53.3899 81.5314 51.6051 84.6036 49.9939 87.7673L46.4443 79.0029C46.3253 78.6613 46.1322 78.3503 45.8789 78.092C45.6257 77.8338 45.3184 77.6347 44.9792 77.5091C44.6401 77.3835 44.2773 77.3344 43.9169 77.3653C43.5566 77.3963 43.2075 77.5065 42.8947 77.6882C42.5545 77.8019 42.2439 77.9902 41.9856 78.2393C41.7274 78.4883 41.528 78.7919 41.402 79.1278C41.276 79.4637 41.2266 79.8235 41.2574 80.181C41.2882 80.5384 41.3985 80.8846 41.5801 81.194L47.3207 94.7787C47.5621 95.2883 47.9393 95.7216 48.4109 96.0308C48.8825 96.34 49.4302 96.5134 49.9939 96.5316C50.452 96.543 50.9041 96.4259 51.2991 96.1936C51.6941 95.9612 52.0161 95.6229 52.2287 95.2169L57.0492 85.5762Z" fill="white" stroke="white" stroke-width="2"/>
<path d="M84.9624 95.2172C85.1597 95.6723 85.4674 96.071 85.8577 96.3771C86.2479 96.6832 86.7084 96.887 87.1974 96.9701C87.7156 96.9805 88.2287 96.8666 88.6938 96.6379C89.1589 96.4092 89.5625 96.0723 89.8705 95.6555L95.6112 86.0146L101.483 95.6555C101.741 96.1116 102.129 96.4804 102.597 96.7147C103.065 96.9489 103.593 97.0378 104.113 96.9701C104.604 96.8948 105.069 96.6941 105.46 96.387C105.852 96.08 106.157 95.677 106.348 95.2172L112.088 81.6325C112.35 80.9898 112.36 80.2723 112.116 79.6227C111.872 78.9731 111.393 78.439 110.774 78.1268C110.125 77.863 109.4 77.8516 108.743 78.0949C108.087 78.3382 107.545 78.8185 107.224 79.4414L103.674 88.2057C97.9337 79.0031 98.372 79.0032 97.9337 78.565C97.6225 78.2942 97.2592 78.09 96.8661 77.9648C96.473 77.8397 96.0584 77.7962 95.648 77.8372C95.2375 77.8783 94.8397 78.0029 94.4792 78.2034C94.1187 78.4039 93.803 78.6762 93.5515 79.0032C91.6014 81.97 89.8166 85.0421 88.2053 88.2057L84.6557 79.4414C84.5367 79.0998 84.3436 78.7889 84.0904 78.5306C83.8371 78.2724 83.5298 78.0733 83.1907 77.9477C82.8515 77.8221 82.4887 77.773 82.1284 77.8039C81.768 77.8349 81.419 77.9451 81.1062 78.1268C80.7659 78.2405 80.4553 78.4288 80.197 78.6779C79.9388 78.9269 79.7394 79.2305 79.6134 79.5664C79.4875 79.9023 79.4381 80.2621 79.4689 80.6196C79.4997 80.977 79.6099 81.323 79.7915 81.6325L84.9624 95.2172Z" fill="white" stroke="white" stroke-width="2"/>
<path d="M123.395 95.2176C123.636 95.7273 124.013 96.1605 124.485 96.4698C124.956 96.779 125.504 96.9523 126.068 96.9705C126.526 96.9819 126.978 96.8649 127.373 96.6325C127.768 96.4002 128.09 96.0618 128.303 95.6559L134.043 86.015L139.828 95.6559C140.085 96.112 140.473 96.4808 140.941 96.715C141.41 96.9493 141.938 97.0381 142.457 96.9705C142.949 96.8952 143.413 96.6945 143.805 96.3874C144.196 96.0803 144.502 95.6774 144.692 95.2176L150.433 81.6328C150.705 80.9914 150.72 80.2699 150.476 79.6175C150.231 78.965 149.745 78.4314 149.118 78.1271C148.469 77.8634 147.745 77.852 147.088 78.0953C146.431 78.3386 145.889 78.8189 145.568 79.4417L142.019 88.2061C140.082 85.2395 138.311 82.1673 136.716 79.0036C136.501 78.6105 136.184 78.2826 135.799 78.0541C135.413 77.8257 134.973 77.7051 134.525 77.7051C134.077 77.7051 133.637 77.8257 133.252 78.0541C132.866 78.2826 132.549 78.6105 132.334 79.0036C131.896 79.4419 128.346 85.5768 126.988 88.2061L123.438 79.4417C123.319 79.1002 123.126 78.7892 122.873 78.531C122.62 78.2728 122.313 78.0737 121.973 77.9481C121.634 77.8224 121.271 77.7734 120.911 77.8043C120.551 77.8353 120.202 77.9455 119.889 78.1271C119.549 78.2409 119.238 78.4292 118.98 78.6783C118.722 78.9273 118.522 79.2309 118.396 79.5668C118.27 79.9027 118.221 80.2625 118.252 80.6199C118.282 80.9774 118.393 81.3234 118.574 81.6328L123.395 95.2176Z" fill="white" stroke="white" stroke-width="2"/>
<path d="M218.4 199.952C216.412 199.978 214.476 200.591 212.836 201.714C211.196 202.837 209.925 204.42 209.182 206.264C208.439 208.108 208.258 210.13 208.662 212.076C209.066 214.023 210.036 215.807 211.451 217.203C212.865 218.599 214.661 219.546 216.613 219.925C218.564 220.303 220.584 220.096 222.418 219.329C224.252 218.563 225.818 217.271 226.92 215.616C228.022 213.962 228.61 212.019 228.61 210.031C228.628 208.691 228.376 207.361 227.867 206.122C227.359 204.882 226.605 203.758 225.652 202.816C224.698 201.875 223.564 201.136 222.318 200.644C221.072 200.152 219.739 199.916 218.4 199.952ZM218.4 214.413C217.767 214.413 217.14 214.288 216.555 214.046C215.97 213.804 215.439 213.449 214.991 213.001C214.544 212.554 214.188 212.022 213.946 211.437C213.704 210.852 213.579 210.226 213.579 209.593C213.579 208.96 213.704 208.333 213.946 207.748C214.188 207.163 214.544 206.632 214.991 206.184C215.439 205.736 215.97 205.381 216.555 205.139C217.14 204.897 217.767 204.772 218.4 204.772C218.983 204.75 219.564 204.857 220.101 205.084C220.639 205.311 221.12 205.653 221.511 206.087C222.307 206.916 222.775 208.006 222.826 209.154C222.958 209.802 222.942 210.472 222.78 211.112C222.617 211.753 222.311 212.349 221.885 212.855C221.459 213.36 220.925 213.763 220.321 214.033C219.717 214.303 219.061 214.433 218.4 214.413Z" fill="white" stroke="white" stroke-width="2"/>
<path d="M186.937 168.4L176.727 178.918C176.3 179.486 176.069 180.178 176.069 180.89C176.069 181.601 176.3 182.293 176.727 182.861C177.302 183.292 178.002 183.524 178.721 183.524C179.439 183.524 180.139 183.292 180.714 182.861L191.363 172.344C191.79 171.775 192.02 171.083 192.02 170.372C192.02 169.661 191.79 168.969 191.363 168.4C191.084 168.09 190.742 167.843 190.361 167.673C189.98 167.504 189.567 167.416 189.15 167.416C188.733 167.416 188.32 167.504 187.939 167.673C187.558 167.843 187.217 168.09 186.937 168.4Z" fill="white" stroke="white" stroke-width="2"/>
<path d="M90.3087 214.412C91.0061 214.412 91.6749 214.135 92.168 213.642C92.6611 213.149 92.9381 212.48 92.9381 211.783C92.9381 211.085 92.6611 210.417 92.168 209.923C91.6749 209.43 91.0061 209.153 90.3087 209.153H29.5717C28.8743 209.153 28.2056 209.43 27.7125 209.923C27.2194 210.417 26.9424 211.085 26.9424 211.783C26.9424 212.48 27.2194 213.149 27.7125 213.642C28.2056 214.135 28.8743 214.412 29.5717 214.412H90.3087Z" fill="white" stroke="white" stroke-width="2"/>
<path d="M178.96 225.369H32.244C31.5467 225.369 30.8779 225.646 30.3849 226.139C29.8918 226.632 29.6147 227.301 29.6147 227.998C29.6147 228.696 29.8918 229.365 30.3849 229.858C30.8779 230.351 31.5467 230.628 32.244 230.628H178.96C179.657 230.628 180.326 230.351 180.819 229.858C181.312 229.365 181.589 228.696 181.589 227.998C181.589 227.301 181.312 226.632 180.819 226.139C180.326 225.646 179.657 225.369 178.96 225.369Z" fill="white" stroke="white" stroke-width="2"/>
<path d="M14.0581 222.738C14.8362 222.746 15.5944 222.985 16.2372 223.423C16.88 223.862 17.3787 224.481 17.6705 225.202C17.9623 225.924 18.0341 226.715 17.877 227.477C17.7199 228.24 17.3409 228.938 16.7876 229.485C16.2343 230.033 15.5315 230.404 14.7677 230.553C14.0039 230.701 13.2132 230.621 12.495 230.321C11.7769 230.021 11.1636 229.516 10.7321 228.868C10.3006 228.22 10.0704 227.46 10.0703 226.681C10.0703 226.16 10.1738 225.643 10.3747 225.162C10.5756 224.681 10.8701 224.244 11.241 223.877C11.6118 223.51 12.0518 223.221 12.5354 223.025C13.0189 222.829 13.5365 222.732 14.0581 222.738Z" fill="white" stroke="white" stroke-width="2"/>
<path d="M135.972 192.939C136.75 192.947 137.508 193.186 138.151 193.625C138.794 194.063 139.292 194.682 139.584 195.403C139.876 196.125 139.948 196.916 139.791 197.679C139.633 198.441 139.254 199.139 138.701 199.687C138.148 200.234 137.445 200.605 136.681 200.754C135.917 200.902 135.127 200.822 134.409 200.522C133.69 200.222 133.077 199.717 132.646 199.069C132.214 198.422 131.984 197.661 131.984 196.883C131.984 196.361 132.087 195.845 132.288 195.363C132.489 194.882 132.784 194.445 133.154 194.078C133.525 193.711 133.965 193.422 134.449 193.226C134.932 193.031 135.45 192.933 135.972 192.939Z" fill="white" stroke="white" stroke-width="2"/>
<path d="M34.874 170.593C34.9088 167.862 34.1303 165.183 32.6377 162.896C31.145 160.609 29.0058 158.818 26.4921 157.751C23.9785 156.684 21.2043 156.389 18.5224 156.904C15.8406 157.418 13.3724 158.719 11.4322 160.641C9.49196 162.562 8.16739 165.018 7.62705 167.695C7.08672 170.371 7.35504 173.148 8.39789 175.672C9.44075 178.196 11.211 180.352 13.4833 181.867C15.7555 183.382 18.427 184.186 21.1578 184.177C24.7729 184.178 28.2419 182.75 30.8105 180.207C33.379 177.663 34.8394 174.207 34.874 170.593ZM21.1578 178.919C20.0549 178.93 18.9607 178.724 17.9379 178.311C16.9152 177.898 15.984 177.287 15.1981 176.514C14.4121 175.74 13.7868 174.819 13.3581 173.802C12.9295 172.786 12.7059 171.695 12.7002 170.593C12.854 168.46 13.8094 166.465 15.3745 165.009C16.9396 163.553 18.998 162.743 21.1358 162.743C23.2736 162.743 25.3321 163.553 26.8972 165.009C28.4623 166.465 29.4178 168.46 29.5715 170.593C29.5658 171.692 29.3437 172.779 28.9177 173.792C28.4918 174.806 27.8704 175.725 27.0891 176.498C26.3078 177.271 25.3819 177.883 24.3642 178.298C23.3465 178.714 22.2569 178.924 21.1578 178.919Z" fill="white" stroke="white" stroke-width="2"/>
<path d="M205.122 239.393C205.9 239.401 206.658 239.64 207.301 240.079C207.943 240.517 208.442 241.136 208.734 241.858C209.026 242.579 209.098 243.371 208.94 244.133C208.783 244.895 208.404 245.594 207.851 246.141C207.298 246.688 206.595 247.059 205.831 247.208C205.067 247.357 204.277 247.276 203.559 246.976C202.84 246.676 202.227 246.171 201.796 245.523C201.364 244.876 201.134 244.115 201.134 243.337C201.134 242.815 201.237 242.299 201.438 241.817C201.639 241.336 201.933 240.899 202.304 240.532C202.675 240.166 203.115 239.876 203.599 239.68C204.082 239.485 204.6 239.387 205.122 239.393Z" fill="white" stroke="white" stroke-width="2"/>
<path d="M213.535 140.793C214.313 140.802 215.071 141.041 215.714 141.479C216.357 141.918 216.856 142.537 217.148 143.258C217.439 143.979 217.511 144.771 217.354 145.533C217.197 146.295 216.818 146.994 216.265 147.541C215.711 148.088 215.009 148.46 214.245 148.608C213.481 148.757 212.69 148.676 211.972 148.377C211.254 148.077 210.641 147.571 210.209 146.924C209.778 146.276 209.547 145.515 209.547 144.737C209.547 144.216 209.651 143.699 209.852 143.218C210.053 142.736 210.347 142.3 210.718 141.933C211.089 141.566 211.529 141.276 212.012 141.081C212.496 140.885 213.014 140.787 213.535 140.793Z" fill="white" stroke="white" stroke-width="2"/>
<path d="M232.949 66.7327C233.727 66.7413 234.485 66.98 235.128 67.4186C235.771 67.8572 236.27 68.4761 236.562 69.1975C236.853 69.9189 236.925 70.7104 236.768 71.4726C236.611 72.2347 236.232 72.9334 235.679 73.4806C235.125 74.0278 234.423 74.3991 233.659 74.5478C232.895 74.6965 232.104 74.6158 231.386 74.316C230.668 74.0163 230.055 73.5107 229.623 72.8632C229.192 72.2156 228.961 71.4548 228.961 70.6766C228.961 70.155 229.065 69.6385 229.266 69.1571C229.467 68.6757 229.761 68.239 230.132 67.8722C230.503 67.5054 230.943 67.2158 231.426 67.0202C231.91 66.8246 232.428 66.7269 232.949 66.7327Z" fill="white" stroke="white" stroke-width="2"/>
<path d="M166.56 1.00024C167.338 1.00889 168.096 1.24757 168.739 1.68616C169.381 2.12475 169.88 2.7437 170.172 3.46509C170.464 4.18647 170.536 4.97802 170.378 5.74017C170.221 6.50231 169.842 7.20098 169.289 7.74818C168.736 8.29537 168.033 8.66671 167.269 8.81537C166.505 8.96403 165.715 8.88336 164.997 8.58361C164.278 8.28386 163.665 7.77833 163.233 7.13073C162.802 6.48313 162.572 5.72235 162.572 4.94418C162.572 4.42255 162.675 3.90608 162.876 3.4247C163.077 2.94332 163.371 2.5066 163.742 2.13979C164.113 1.77298 164.553 1.48338 165.037 1.28777C165.52 1.09216 166.038 0.994448 166.56 1.00024Z" fill="white" stroke="white" stroke-width="2"/>
<path d="M27.7758 17.6516C28.5539 17.6603 29.3122 17.8988 29.9549 18.3374C30.5977 18.776 31.0964 19.3949 31.3882 20.1163C31.68 20.8377 31.7519 21.6293 31.5948 22.3914C31.4377 23.1535 31.0587 23.8522 30.5054 24.3994C29.9521 24.9466 29.2493 25.3179 28.4855 25.4666C27.7216 25.6153 26.9309 25.5346 26.2128 25.2348C25.4947 24.9351 24.8813 24.4297 24.4498 23.7821C24.0183 23.1345 23.7881 22.3737 23.7881 21.5955C23.7881 21.0739 23.8915 20.5575 24.0924 20.0761C24.2933 19.5947 24.5878 19.158 24.9587 18.7912C25.3295 18.4243 25.7696 18.1347 26.2531 17.9391C26.7367 17.7435 27.2542 17.6458 27.7758 17.6516Z" fill="white" stroke="white" stroke-width="2"/>
<path d="M225.937 42.1938C229.741 42.1506 233.447 40.9831 236.589 38.8383C239.731 36.6935 242.168 33.6672 243.594 30.1404C245.02 26.6135 245.371 22.7437 244.602 19.018C243.834 15.2923 241.98 11.8772 239.275 9.2025C236.57 6.52779 233.134 4.71301 229.4 3.98662C225.666 3.26022 221.8 3.65468 218.29 5.12028C214.779 6.58587 211.781 9.05708 209.671 12.223C207.562 15.3889 206.437 19.108 206.437 22.9122C206.506 28.0425 208.589 32.9399 212.238 36.5473C215.886 40.1547 220.807 42.1827 225.937 42.1938ZM225.937 9.3274C228.618 9.35335 231.232 10.1722 233.448 11.6806C235.665 13.189 237.386 15.3195 238.394 17.804C239.402 20.2884 239.652 23.0156 239.113 25.6421C238.574 28.2686 237.27 30.6769 235.365 32.5636C233.46 34.4504 231.04 35.7312 228.408 36.2448C225.777 36.7584 223.052 36.4818 220.577 35.4499C218.103 34.4179 215.989 32.6768 214.502 30.4457C213.015 28.2146 212.221 25.5934 212.221 22.9122C212.267 19.3008 213.731 15.8524 216.297 13.3109C218.863 10.7694 222.326 9.33861 225.937 9.3274Z" fill="white" stroke="white" stroke-width="2"/>
</svg>
